<svg xmlns="http://www.w3.org/2000/svg" xmlns:xlink="http://www.w3.org/1999/xlink" version="1.1" width="511.626" height="511.626" style="" xml:space="preserve"><rect id="backgroundrect" width="100%" height="100%" x="0" y="0" fill="none" stroke="none"/>
















<g class="currentLayer" style=""><title>Layer 1</title><g id="svg_1" class="" fill="#9bc9ff" fill-opacity="1">
	<path d="M475.366,71.949c-24.175-23.606-57.575-35.404-100.215-35.404c-11.8,0-23.843,2.046-36.117,6.136   c-12.279,4.093-23.702,9.615-34.256,16.562c-10.568,6.945-19.65,13.467-27.269,19.556c-7.61,6.091-14.845,12.564-21.696,19.414   c-6.854-6.85-14.087-13.323-21.698-19.414c-7.616-6.089-16.702-12.607-27.268-19.556c-10.564-6.95-21.985-12.468-34.261-16.562   c-12.275-4.089-24.316-6.136-36.116-6.136c-42.637,0-76.039,11.801-100.211,35.404C12.087,95.55,0,128.286,0,170.16   c0,12.753,2.24,25.891,6.711,39.398c4.471,13.514,9.566,25.031,15.275,34.546c5.708,9.514,12.181,18.792,19.414,27.834   c7.233,9.041,12.519,15.272,15.846,18.698c3.33,3.426,5.948,5.903,7.851,7.427L243.25,469.938   c3.427,3.426,7.614,5.144,12.562,5.144s9.138-1.718,12.563-5.144l177.87-171.31c43.588-43.58,65.38-86.406,65.38-128.472   C511.626,128.279,499.54,95.546,475.366,71.949z M421.405,271.795L255.813,431.391L89.938,271.507   C54.344,235.922,36.55,202.133,36.55,170.156c0-15.415,2.046-29.026,6.136-40.824c4.093-11.8,9.327-21.177,15.703-28.124   c6.377-6.949,14.132-12.607,23.268-16.988c9.141-4.377,18.086-7.328,26.84-8.85c8.754-1.52,18.079-2.281,27.978-2.281   c9.896,0,20.557,2.424,31.977,7.279c11.418,4.853,21.934,10.944,31.545,18.271c9.613,7.332,17.845,14.183,24.7,20.557   c6.851,6.38,12.559,12.229,17.128,17.559c3.424,4.189,8.091,6.283,13.989,6.283c5.9,0,10.562-2.094,13.99-6.283   c4.568-5.33,10.28-11.182,17.131-17.559c6.852-6.374,15.085-13.222,24.694-20.557c9.613-7.327,20.129-13.418,31.553-18.271   c11.416-4.854,22.08-7.279,31.977-7.279s19.219,0.761,27.977,2.281c8.757,1.521,17.702,4.473,26.84,8.85   c9.137,4.38,16.892,10.042,23.267,16.988c6.376,6.947,11.612,16.324,15.705,28.124c4.086,11.798,6.132,25.409,6.132,40.824   C475.078,202.133,457.19,236.016,421.405,271.795z" id="svg_2" fill="#9bc9ff" fill-opacity="1"/>
</g><g id="svg_3">
</g><g id="svg_4">
</g><g id="svg_5">
</g><g id="svg_6">
</g><g id="svg_7">
</g><g id="svg_8">
</g><g id="svg_9">
</g><g id="svg_10">
</g><g id="svg_11">
</g><g id="svg_12">
</g><g id="svg_13">
</g><g id="svg_14">
</g><g id="svg_15">
</g><g id="svg_16">
</g><g id="svg_17">
</g><path fill="#1e81ce" fill-opacity="1" stroke="none" stroke-opacity="1" stroke-width="1" stroke-dasharray="none" stroke-linejoin="miter" stroke-linecap="butt" stroke-dashoffset="" fill-rule="nonzero" opacity="1" marker-start="" marker-mid="" marker-end="" d="M250.79221650233308,170.88597172775437 C250.79221650233308,106.41148043873244 305.4762121052791,54.18714249462471 372.9873177879284,54.18714249462471 C440.49842347057785,54.18714249462471 495.1824190735238,106.41148043873244 495.1824190735238,170.88597172775437 C495.1824190735238,235.3604630167762 440.49842347057785,287.584800960884 372.9873177879284,287.584800960884 C305.4762121052791,287.584800960884 250.79221650233308,235.3604630167762 250.79221650233308,170.88597172775437 z" id="svg_18" class=""/><rect fill="#1e81ce" stroke-dashoffset="" fill-rule="nonzero" id="svg_23" x="131.9465786909073" y="153.31080184882484" width="295.87882198101534" height="229.61816697534982" style="color: rgb(0, 0, 0);" class="" transform="rotate(-44.54573059082031 279.8859863281249,268.11990356445307) " fill-opacity="1"/><path fill="#9bc9ff" fill-opacity="1" stroke="none" stroke-opacity="1" stroke-width="1" stroke-dasharray="none" stroke-linejoin="miter" stroke-linecap="butt" stroke-dashoffset="" fill-rule="nonzero" opacity="1" marker-start="" marker-mid="" marker-end="" d="M17.97661018371582,187.07895291250392 C17.97661018371582,112.42708746009643 76.47398022483132,51.95907644364647 148.69295558423306,51.95907644364647 C220.91193094363476,51.95907644364647 279.4093009847503,112.42708746009643 279.4093009847503,187.07895291250392 C279.4093009847503,261.73081836491116 220.91193094363476,322.19882938136135 148.69295558423306,322.19882938136135 C76.47398022483132,322.19882938136135 17.97661018371582,261.73081836491116 17.97661018371582,187.07895291250392 z" id="svg_20" class=""/></g></svg>