<svg xmlns="http://www.w3.org/2000/svg" xmlns:xlink="http://www.w3.org/1999/xlink" xmlns:fi="http://pattern.flaticon.com/" x="0" y="0" width="1920" height="960" viewBox="0 0 1920 960"><rect x="0px" y="0px" width="100%" height="100%" opacity="1" fill="#ffffff"/><defs><g transform="matrix(0.12072507292032242 0 0 0.12072507292032242 312 167)" id="L1_89"><path d="m401.837 453.684c-.873 0-1.762-.153-2.628-.478l-261.257-89.765c-2.017-.755-3.612-2.34-4.379-4.352l-92.765-264.257c-1.476-3.871.465-8.205 4.335-9.68 3.873-1.475 8.205.465 9.68 4.335l91.558 261.092 258.085 88.578c3.879 1.452 5.847 5.773 4.396 9.653-1.128 3.013-3.987 4.874-7.025 4.874z" fill="#fef6ad"/><path d="m488.087 485.02c-2.85 2.78-7.49 5.52-13.08 7.68-15.07 5.83-37.07 7.4-49.79-6.14l-28.544-28.545c-3.073-3.073-4.837-7.21-4.924-11.555-.568-28.212-4.77-136.901-35.861-164.72-6.05-5.42-12.95-10.12-20.25-14.2-12.28-6.88-25.69-11.97-38-15.71-9.14-2.77-17.43-7.77-24.19-14.52l-13.76-13.76c-6.75-6.76-11.75-15.05-14.52-24.19-3.74-12.31-8.83-25.72-15.71-38-4.08-7.3-8.78-14.2-14.2-20.25-27.819-31.091-136.509-35.294-164.72-35.861-4.346-.087-8.482-1.851-11.555-4.924l-28.546-28.545c-13.54-12.72-11.97-34.72-6.14-49.79 2.16-5.59 4.9-10.23 7.68-13.08 11.88-11.88 31.14-11.88 43.02 0 20.61 18.01 9.22 36.26.12 53.17-1.27 2.37-2.5 4.7-3.59 7.01 0 0 2.71.01 7.5.07 33.59.49 169.67 4.07 197.71 30.47 5.74 5.41 10.93 11.89 15.56 18.89 21.29 32.07 31.19 74.99 31.19 74.99s42.92 9.9 74.99 31.19c7 4.63 13.48 9.82 18.89 15.56 26.48 28.13 30 164.96 30.47 198.01.06 4.61.07 7.2.07 7.2 2.31-1.09 4.65-2.32 7.02-3.59 16.91-9.1 35.16-20.49 53.16.12 11.88 11.88 11.88 31.14 0 43.02z" fill="#fdb4ba"/><path d="m488.087 442c-18-20.61-36.25-9.22-53.16-.12-2.37 1.27-4.71 2.5-7.02 3.59 0 0-.01-2.59-.07-7.2-.47-33.05-3.99-169.88-30.47-198.01-5.41-5.74-11.89-10.93-18.89-15.56-32.07-21.29-74.99-31.19-74.99-31.19s-9.9-42.92-31.19-74.99c-4.63-7-9.82-13.48-15.56-18.89-28.04-26.4-164.12-29.98-197.71-30.47-4.79-.06-7.5-.07-7.5-.07 1.09-2.31 2.32-4.64 3.59-7.01 9.1-16.91 20.49-35.16-.12-53.17-11.88-11.88-31.14-11.88-43.02 0-2.78 2.85-5.52 7.49-7.68 13.08 10.576-10.081 30.53-15.496 38.62-7.406 20.727 18.107 11.075 35.63 1.95 52.628-1.637 3.049.536 6.745 3.996 6.794 33.455.479 158.99 20.026 187.054 46.444 5.74 5.41 10.93 11.89 15.56 18.89 21.29 32.07 31.19 74.99 31.19 74.99s42.92 9.9 74.99 31.19c7 4.63 13.48 9.82 18.89 15.56 26.418 28.064 46.437 154.596 46.917 188.052.05 3.46 3.746 5.633 6.794 3.996 16.997-9.125 32.724-19.08 50.83 1.648 8.09 8.09 3.763 27.005-6.081 37.924-.942.364-1.911.712-2.903 1.041.992-.328 1.961-.676 2.903-1.041 5.59-2.16 10.23-4.9 13.08-7.68 11.88-11.88 11.88-31.14 0-43.02z" fill="#fe99a0"/><path d="m140.577 356.42-26.48 26.48-1.52 1.53h-.01l-40.33 40.33-32.975-12.304c-5.739-2.142-7.341-9.502-3.009-13.834l33.124-33.132 5.3-5.3h.01l16.825-16.825c2.33-2.33 5.805-3.086 8.892-1.934z" fill="#ecf4ff"/><path d="m155.566 396.592c1.152 3.087.396 6.562-1.934 8.892l-16.825 16.825-6.83 6.83-31.602 31.602c-4.332 4.332-11.693 2.731-13.835-3.009l-12.303-32.972 29.21-29.21 11.13-11.12 1.52-1.53 26.48-26.48z" fill="#ecf4ff"/><path d="m119.927 377.07 20.65-20.65-40.172-14.989c-3.087-1.152-6.563-.396-8.892 1.934l-16.826 16.825z" fill="#d2e5fd"/><path d="m155.566 396.592-14.989-40.172-20.65 20.65 15.141 40.578c1.06 2.84.365 6.037-1.779 8.18l3.518-3.518 16.825-16.825c2.33-2.33 3.086-5.806 1.934-8.893z" fill="#d2e5fd"/><path d="m378.477 224.7-42.84 42.84c-12.28-6.88-25.69-11.97-38-15.71-9.14-2.77-17.43-7.77-24.19-14.52l-13.76-13.76c-6.75-6.76-11.75-15.05-14.52-24.19-3.74-12.31-8.83-25.72-15.71-38l42.84-42.84c21.29 32.07 31.19 74.99 31.19 74.99s42.92 9.9 74.99 31.19z" fill="#a44f3e"/><path d="m378.477 224.7c-32.07-21.29-74.99-31.19-74.99-31.19s-9.9-42.92-31.19-74.99l-20.82 20.82c21.29 32.07 31.19 74.99 31.19 74.99s42.92 9.9 74.99 31.19z" fill="#883f2e"/><path d="m126.947 379.7c-1.13 3.02-3.99 4.88-7.03 4.88-.87 0-1.75-.15-2.62-.48l-3.2-1.2-42.04-15.68c-1.04-.39-1.95-.99-2.68-1.73l5.3-5.3h.01l5.82-5.82 42.03 15.68c1.04.39 1.94.98 2.68 1.73 2.02 2 2.79 5.08 1.73 7.92z" fill="#5294fe"/><path d="m129.977 429.14-11.13 11.13c-.74-.73-1.33-1.64-1.72-2.68l-15.68-42.04-1.2-3.2c-1.45-3.88.52-8.2 4.4-9.65 2.84-1.06 5.92-.29 7.93 1.73.74.74 1.33 1.64 1.72 2.67z" fill="#5294fe"/><path d="m58.053 446.444c-1.919 0-3.839-.732-5.303-2.197-2.929-2.929-2.929-7.678 0-10.606l323.002-323.002c2.93-2.929 7.678-2.929 10.607 0s2.929 7.678 0 10.606l-323.002 323.002c-1.465 1.464-3.384 2.197-5.304 2.197z" fill="#0055a3"/><path d="m51.527 69.09c1.09-2.31 2.32-4.64 3.59-7.01l-14.24-14.25 2.27-20.07c.47-4.12-2.49-7.83-6.61-8.3-4.11-.47-7.83 2.49-8.3 6.61l-2.67 23.67c-.26 2.27.53 4.53 2.15 6.15l17.261 17.261c1.362 1.362 3.648 1.053 4.599-.623z" fill="#fd4755"/><path d="m427.907 445.47c2.31-1.09 4.65-2.32 7.02-3.59l14.53 14.53 20.08-2.27c4.1-.46 7.83 2.5 8.29 6.61.47 4.12-2.49 7.83-6.61 8.3l-23.67 2.67c-.28.04-.56.05-.84.05-1.98 0-3.89-.78-5.3-2.19l-16.874-16.903c-1.715-1.718-1.311-4.6.811-5.781z" fill="#fd4755"/><path d="m434.897 72.17v42.21c-.01 14.5-11.6 26.53-26.11 26.64-4.45.03-8.66-1.05-12.34-2.97-3.74-1.95-6.95-4.76-9.36-8.18-3.652-2.764-2.232-12.809-9.06-15.5-12.57-2.05-22.14-12.99-22.04-26.16.11-14.5 12.12-26.11 26.63-26.11h42.21c1.21 0 2.37.22 3.45.61 3.86 1.41 6.62 5.11 6.62 9.46z" fill="#fd4755"/><path d="m428.277 62.71c-1.08-.39-2.24-.61-3.45-.61h-24.2c1.22 0 2.38.22 3.45.61 3.87 1.41 6.63 5.11 6.63 9.46v42.21c-.01 10.22-5.78 19.22-14.26 23.67 3.68 1.92 7.89 3 12.34 2.97 14.51-.11 26.1-12.14 26.11-26.64v-42.21c0-4.35-2.76-8.05-6.62-9.46z" fill="#fb2b3a"/></g><g transform="matrix(0.1043444936233493 0.08151913880470127 -0.08151913880470127 0.1043444936233493 176.61425653713596 262.3873848441167)" id="L1_90"><path d="m386.613 247.595c-12.132 7.831-28.207 5.319-37.371-5.84l-71.329-86.857 19.32-12.471c21.564-13.92 50.33-7.723 64.249 13.841l33.594 52.042c8.512 13.185 4.722 30.774-8.463 39.285z" fill="#ffcebf"/><path d="m386.611 247.591c-7.07 4.57-15.49 5.62-23.09 3.49 2.67-.75 5.27-1.91 7.71-3.49 13.19-8.51 16.97-26.1 8.46-39.28l-33.59-52.04c-7.38-11.44-18.94-18.56-31.39-20.63 17.75-2.99 36.39 4.54 46.77 20.63l33.6 52.04c8.51 13.18 4.72 30.77-8.47 39.28z" fill="#ffb09e"/><path d="m355.116 246.944c-13.87 8.953-32.249 6.081-42.726-6.677l-81.549-99.302 22.088-14.258c24.654-15.914 57.541-8.83 73.455 15.824l38.407 59.499c9.732 15.075 5.4 35.183-9.675 44.914z" fill="#ffcebf"/><path d="m355.121 246.941c-7.89 5.1-17.24 6.36-25.77 4.15 3.27-.85 6.46-2.23 9.43-4.15 15.08-9.73 19.41-29.84 9.68-44.91l-38.41-59.5c-8.56-13.26-22.02-21.43-36.48-23.69 20.09-3.12 41.07 5.5 52.81 23.69l38.41 59.5c9.73 15.07 5.4 35.18-9.67 44.91z" fill="#ffb09e"/><path d="m320.11 244.199c-13.87 8.953-32.249 6.081-42.726-6.677l-81.549-99.302 22.088-14.258c24.654-15.914 57.541-8.83 73.455 15.824l38.407 59.499c9.731 15.075 5.399 35.184-9.675 44.914z" fill="#ffcebf"/><path d="m320.111 244.201c-7.98 5.15-17.46 6.39-26.07 4.07 3.18-.85 6.27-2.2 9.16-4.07 15.08-9.73 19.41-29.84 9.68-44.92l-38.41-59.49c-8.5-13.18-21.86-21.34-36.22-23.65 20.19-3.26 41.32 5.36 53.13 23.65l38.4 59.49c9.74 15.08 5.4 35.19-9.67 44.92z" fill="#ffb09e"/><path d="m383.111 282.751-12.55 63.41v136.596c0 7.867-6.377 14.244-14.244 14.244h-174.049c-9.838 0-16.714-9.736-13.425-19.007l56.23-158.497c1.912-5.389-1.207-11.257-6.743-12.688l-65.831-17.018c-41.27-10.66-66.23-52.6-55.93-93.96l6.82-27.38 9.02-36.23c1.44-5.79 3.45-11.39 5.99-16.76 2.99-6.34 6.73-12.33 11.15-17.84l6.96-8.68 61.43-76.59c9.86-12.3 27.07-15.24 40.31-7.57 1.36.78 2.68 1.68 3.95 2.7 12.24 9.83 15.38 27.17 7.35 40.67l-29.15 50.06-39.61 68.03-1.96 16.83 145.47 28.2 12.35 2.39c1.6.31 3.18.68 4.72 1.12 29.242 8.18 47.742 37.66 41.742 67.97z" fill="#ffcebf"/><path d="m383.111 282.751-12.55 63.41v136.596c0 7.867-6.377 14.244-14.244 14.244h-41.876c8.14 0 14.84-6.41 15.2-14.54l-1.14-138.96 21.02-91.54c3.36-14.63-3.44-29.69-16.61-36.9-3.55-1.95-6.69-3.42-8.61-3.79l12.35 2.39c1.6.31 3.18.68 4.72 1.12 29.24 8.18 47.74 37.66 41.74 67.97z" fill="#ffb09e"/><path d="m392.861 56.661-37.19 37.2c-4.92 4.92-12.9 4.92-17.82 0l-4.19-4.2-33-33c-13.05-13.05-13.3-34.67 0-47.47 11.63-11.19 29.45-12.16 42.15-2.92 2.37 1.72 5.54 1.72 7.9 0 1.98-1.44 4.08-2.63 6.26-3.56 11.84-5.13 26.08-2.97 35.89 6.48 13.31 12.8 13.06 34.42 0 47.47z" fill="#fb2b3a"/><path d="m392.861 56.661-37.19 37.2c-4.92 4.92-12.9 4.92-17.82 0l-4.19-4.2 32.99-33c13.05-13.05 13.3-34.67 0-47.47-2.38-2.29-5.74-4.5-9.68-6.48 11.84-5.13 26.08-2.97 35.89 6.48 13.31 12.8 13.06 34.42 0 47.47z" fill="#e41f2d"/><path d="m249.551 48.151-29.15 50.06-26.8 1.29 44.31-75.47c3.47-5.92 3.6-13.22.34-19.25 1.36.78 2.68 1.68 3.95 2.7 12.24 9.83 15.38 27.17 7.35 40.67z" fill="#ffb09e"/><path d="m299.671 206.491-29.05-5.63-91.79-17.79-61.49-136.79c-7.04-15.64-2.03-33.5 11.72-41.84.07-.04.13-.08.2-.12 1.08-.65 2.2-1.22 3.33-1.71 3.98-1.77 8.22-2.61 12.47-2.61 10.96 0 21.98 5.62 28.83 15.79z" fill="#ffcebf"/><g fill="#ffb09e"><path d="m299.671 206.491c-18.578-3.601-34.923-14.534-45.342-30.332l-105.768-160.368c-4.12-6.12-9.75-10.59-15.97-13.18 3.98-1.77 8.22-2.61 12.47-2.61 10.96 0 21.98 5.62 28.83 15.79z"/><path d="m178.831 183.071-6.783-.773c-15.228-1.735-28.427-11.336-34.767-25.289l-18.879-41.548c2.99-6.34 6.73-12.33 11.15-17.84l6.96-8.68z"/></g></g><g transform="matrix(0.1001357258601327 0.06294245385976573 -0.06294245385976573 0.1001357258601327 80.75754441192032 15.474851578847613)" id="L1_93"><path d="m495.017 257.825-249.887 131.003-245.123-114.444v-16.529c0-21.29 9.84-41.39 26.65-54.44l178.73-138.76c8.27-6.42 17.63-10.7 27.36-12.85 19.56-4.33 40.6-.04 57.21 12.87l178.44 138.74c16.8 13.05 26.62 33.14 26.62 54.41z" fill="#5294fe"/><path d="m495.01 257.83v16.522l-29.83-16.522c0-21.27-9.82-41.36-26.62-54.41l-80.46-62.56-72.13-56.08-25.85-20.1c-8.27-6.43-17.64-10.72-27.38-12.87 19.56-4.33 40.6-.04 57.21 12.87l178.44 138.74c16.8 13.05 26.62 33.14 26.62 54.41z" fill="#4188ff"/><path d="m418.32 108.02v227.94c0 12.84-10.4 23.24-23.24 23.24h-295.15c-12.83 0-23.24-10.4-23.24-23.24v-227.94c0-12.83 10.41-23.24 23.24-23.24h295.15c12.84 0 23.24 10.41 23.24 23.24z" fill="#fe99a0"/><path d="m418.32 108.02v227.94c0 12.84-10.4 23.24-23.24 23.24h-29.29c12.84 0 23.24-10.4 23.24-23.24v-227.94c0-12.83-10.4-23.24-23.24-23.24h29.29c12.84 0 23.24 10.41 23.24 23.24z" fill="#fe646f"/><path d="m495.01 258.98v214.62c0 3.4-.82 6.61-2.27 9.44-2.54 4.94-7 8.72-12.39 10.36-1.91.58-3.93.89-6.03.89h-177.07l-49.695-5.54-49.364 5.54h-177.501c-2 0-3.93-.28-5.76-.82l-4.43-6.47-8.13-3.79c-1.52-2.87-2.37-6.14-2.37-9.61v-214.62c0-15.71 16.82-25.69 30.61-18.16l206.98 112.97c.82.45 1.67.84 2.53 1.17l7.385 4.24 7.755-4.39c.73-.29 1.46-.63 2.16-1.02l201.28-109.85 5.71-3.12c13.79-7.53 30.6 2.45 30.6 18.16z" fill="#ecf4ff"/><path d="m495.01 258.98v214.62c0 3.4-.82 6.61-2.27 9.44-2.54 4.94-7 8.72-12.39 10.36-1.91.58-3.93.89-6.03.89h-29.83c11.42 0 20.69-9.26 20.69-20.69v-214.62c0-6.11-2.55-11.36-6.48-15.04l5.71-3.12c13.79-7.53 30.6 2.45 30.6 18.16z" fill="#d2e5fd"/><path d="m296.819 471.541v22.759h-98.628v-22.759c0-6.236 5.055-11.29 11.29-11.29h76.047c6.236-.001 11.291 5.054 11.291 11.29z" fill="#fef6ad"/><path d="m296.82 471.54v22.76h-30.49v-22.76c0-6.23-5.05-11.29-11.29-11.29h30.49c6.23 0 11.29 5.06 11.29 11.29z" fill="#fef056"/><path d="m497 36.294v94.607c0 18.553-15.041 33.594-33.594 33.594h-94.618c-18.552 0-33.594-15.041-33.594-33.594v-94.607c0-18.552 15.041-33.594 33.594-33.594h94.618c18.553 0 33.594 15.041 33.594 33.594z" fill="#ecf4ff"/><path d="m497 36.29v94.61c0 18.55-15.04 33.59-33.59 33.59h-31.83c18.56 0 33.6-15.04 33.6-33.59v-94.61c0-18.55-15.04-33.59-33.6-33.59h31.83c18.55 0 33.59 15.04 33.59 33.59z" fill="#d2e5fd"/><path d="m448.24 88.97-25.95 25.95c-2.68 2.67-6.65 3.25-9.89 1.75-.9-.42-1.75-1.01-2.5-1.75l-5.68-5.68-20.27-20.27c-8.91-8.92-9.17-23.45-.32-32.43 8.03-8.15 20.65-9 29.63-2.53 1.69 1.21 3.98 1.21 5.67 0 .95-.69 1.94-1.29 2.97-1.81 2.06-1.05 4.24-1.76 6.46-2.15 7.13-1.23 14.73.93 20.2 6.49 8.85 8.98 8.59 23.51-.32 32.43z" fill="#fd4755"/><path d="m448.24 88.97-25.95 25.95c-2.68 2.67-6.65 3.25-9.89 1.75-.9-.42-1.75-1.01-2.5-1.75l-5.68-5.68 20.27-20.27c8.92-8.92 9.17-23.45.32-32.43-.88-.9-1.86-2.42-2.91-4.34 2.06-1.05 4.24-1.76 6.46-2.15 7.13-1.23 14.73.93 20.2 6.49 8.85 8.98 8.59 23.51-.32 32.43z" fill="#fb2b3a"/><path d="m492.74 483.04c-2.54 4.94-7 8.72-12.39 10.36l-232.53-125.56-232.89 125.63c-5.46-1.57-9.98-5.33-12.56-10.26l229.98-124.06 7.77-4.19c4.88 1.86 10.29 1.81 15.14-.15l8.05 4.35z" fill="#d2e5fd"/><path d="m198.191 155.933h-61.326c-4.142 0-7.5-3.358-7.5-7.5s3.358-7.5 7.5-7.5h61.326c4.142 0 7.5 3.358 7.5 7.5s-3.358 7.5-7.5 7.5z" fill="#fd4755"/><path d="m353.38 218.175h-216.515c-4.142 0-7.5-3.358-7.5-7.5s3.358-7.5 7.5-7.5h216.515c4.142 0 7.5 3.358 7.5 7.5s-3.358 7.5-7.5 7.5z" fill="#fe646f"/><path d="m353.38 255.52h-216.515c-4.142 0-7.5-3.358-7.5-7.5s3.358-7.5 7.5-7.5h216.515c4.142 0 7.5 3.358 7.5 7.5s-3.358 7.5-7.5 7.5z" fill="#fe646f"/><circle cx="230" cy="148" r="8" fill="#fd4755"/></g><g transform="matrix(0.166687336504666 0.11188602356704955 -0.11188602356704955 0.166687336504666 97.4985974098534 143.08600127850087)" id="L1_94"><path d="m477.27 129.051c-8.77.68-15.87 3.26-21.53 6.97-1.71 1.12-3.29 2.34-4.75 3.65-7.07 6.29-11.22 14.47-13.23 22.04-.48 1.83-.84 3.62-1.09 5.34-.27 1.9-2.34 2.99-4.06 2.14-3.41-1.67-7.15-2.76-11.1-3.15-1.07-.11-2.15-.16-3.24-.16-16.32 0-29.84 12-32.22 27.66-.29 1.91-2.42 2.97-4.14 2.09-4.43-2.25-9.44-3.52-14.75-3.52-16.54 0-30.2 12.32-32.31 28.28-.15 1.13-.96 2.06-2.05 2.37l-16.73 4.75c-1.6.45-3.25-.55-3.59-2.18l-21.49-102.81c-.38-1.82 1.03-3.51 2.88-3.46l6.21.15c25.01.6 48.94-8.26 67.33-24.21h.01c1.89-1.64 3.72-3.35 5.49-5.14 4.42-4.46 8.46-9.37 12.01-14.7.82-1.23 2.46-1.61 3.76-.89l89.78 49.41c2.5 1.38 1.66 5.15-1.19 5.37z" fill="#0055a3"/><path d="m477.27 129.051c-8.77.68-15.87 3.26-21.53 6.97-1.71 1.12-3.29 2.34-4.75 3.65l-61.238-41.887c-6.556-4.484-14.876-5.521-22.332-2.783 1.89-1.64 3.72-3.35 5.49-5.14 4.42-4.46 8.46-9.37 12.01-14.7.82-1.23 2.46-1.61 3.76-.89l89.78 49.41c2.5 1.38 1.66 5.15-1.19 5.37z" fill="#004281"/><path d="m188.95 122.521-21.49 102.81c-.34 1.63-1.99 2.63-3.59 2.18l-16.73-4.75c-1.09-.31-1.9-1.24-2.05-2.37-2.11-15.96-15.77-28.28-32.31-28.28-5.32 0-10.35 1.27-14.79 3.54-1.75.9-3.81-.25-4.11-2.19-.84-5.45-3.03-10.45-6.22-14.65-1.05-1.39-2.21-2.69-3.47-3.89-5.85-5.6-13.78-9.04-22.52-9.04-1.09 0-2.18.05-3.24.16-3.95.39-7.7 1.48-11.1 3.15-1.73.85-3.8-.25-4.07-2.15-.24-1.71-.6-3.5-1.09-5.32-3.78-14.3-15.23-30.79-39.49-32.67-2.86-.22-3.7-3.99-1.19-5.37l89.77-49.41c1.3-.72 2.93-.34 3.75.89 8.12 12.15 18.7 22.17 30.82 29.56.99.6 1.99 1.19 3 1.76 15.31 8.62 32.88 13.16 51.03 12.73l6.21-.15c1.85-.05 3.26 1.64 2.88 3.46z" fill="#0055a3"/><path d="m188.95 122.521-21.49 102.81c-.34 1.63-1.99 2.63-3.59 2.18l-16.73-4.75c-1.09-.31-1.9-1.24-2.05-2.37-2.11-15.96-15.77-28.28-32.31-28.28-5.32 0-10.35 1.27-14.79 3.54-1.75.9-3.81-.25-4.11-2.19-.84-5.45-3.03-10.45-6.22-14.65l41.17-72.33c15.31 8.62 32.88 13.16 51.03 12.73l6.21-.15c1.85-.05 3.26 1.64 2.88 3.46z" fill="#004281"/><g fill="#0055a3"><path d="m339.97 315.76c0 28.265-22.913 51.179-51.179 51.179h-107.571c-8.975 0-16.25 7.275-16.25 16.25 0 8.975 7.275 16.25 16.25 16.25h133.75l6 12.5-6 12.5h-133.75c-22.782 0-41.25-18.468-41.25-41.25 0-22.782 18.468-41.25 41.25-41.25h107.573c14.457 0 26.177-11.72 26.177-26.177 0-6.943-2.758-13.601-7.667-18.51l-43.343-43.343 17.67-17.68 43.347 43.34c9.599 9.598 14.993 22.616 14.993 36.191z"/><path d="m210.561 110.795h-52.566c-11.865-20.002-12.202-44.804-.883-65.12l.638-1.145c.945-1.696 3.449-1.481 4.091.351 8.579 24.467 23.864 46.029 44.11 62.225z"/><path d="m270.917 110.795h52.566c11.865-20.002 12.202-44.804.883-65.12l-.638-1.145c-.945-1.696-3.449-1.481-4.091.351-8.579 24.467-23.864 46.029-44.11 62.225z"/></g><path d="m341.95 118.941c-17.02-17.28-40.64-24.02-62.82-20.25-10.46 1.77-20.59 5.89-29.56 12.35-5.26 3.79-12.41 3.79-17.66 0-28.01-20.15-67.34-17.52-92.38 7.9-27.6 28-26.8 73.28 1.01 101.08l80.9 80.91c1.31 1.31 2.72 2.46 4.21 3.45 10.6 7.05 25.04 5.9 34.39-3.45l80.9-80.91c27.8-27.8 28.61-73.08 1.01-101.08z" fill="#e41f2d"/><path d="m341.95 118.941c-17.02-17.28-40.64-24.02-62.82-20.25 12.69 4.9 24.12 11.6 32.64 20.25 27.6 28 26.8 73.28-1.01 101.08l-80.9 80.91c-1.31 1.31-2.72 2.46-4.21 3.45 10.6 7.05 25.04 5.9 34.39-3.45l80.9-80.91c27.8-27.8 28.61-73.08 1.01-101.08z" fill="#c41926"/><path d="m371.636 411.939-50.104 24.168c-3.038 1.465-6.563-.748-6.563-4.121v-40.094c0-3.373 3.525-5.586 6.563-4.121z" fill="#c41926"/><path d="m91.31 129.311-32.88 36.73c-3.95.39-7.7 1.48-11.1 3.15-1.73.85-3.8-.25-4.07-2.15-.24-1.71-.6-3.5-1.09-5.32l37.96-42.42c2.76-3.08 7.51-3.35 10.59-.58 3.09 2.76 3.35 7.5.59 10.59z" fill="#004281"/><path d="m437.76 161.711c-.48 1.83-.84 3.62-1.09 5.34-.27 1.9-2.34 2.99-4.06 2.14-3.41-1.67-7.15-2.76-11.1-3.15l-32.88-36.73c-2.76-3.09-2.5-7.83.59-10.59 3.08-2.77 7.83-2.51 10.59.58z" fill="#004281"/></g><g transform="matrix(0.12072458863258362 0 0 0.12072458863258362 314 234)" id="L1_95"><path d="m214.41 306.58-38.42 38.42-27.74 27.73-23.98-23.98 27.01-27.02 39.14-39.14z" fill="#ecf4ff"/><path d="m214.41 306.58-38.42 38.42c-5.86-4.58-11.51-9.57-16.9-14.96-2.71-2.71-5.31-5.48-7.81-8.31l39.14-39.14z" fill="#d2e5fd"/><path d="m157.78 365.69c0 6.06-2.07 12.14-6.27 17.1l-23.03 26.28-55.703 63.557-7.944 2.873-1.944 8.41-3.269 3.73c-10.01 11.81-27.97 12.55-38.92 1.61l-12.95-12.95c-10.94-10.95-10.2-28.91 1.61-38.92l3.011-2.639 6.796-3.241 4.497-6.656 64.266-56.324 26.28-23.03c10.51-8.9 26.08-8.26 35.82 1.48 5.15 5.15 7.75 11.92 7.75 18.72z" fill="#883f2e"/><path d="m157.78 365.69c0 6.06-2.07 12.14-6.27 17.1l-23.03 26.28c.63-2.59.94-5.23.94-7.88 0-8.63-3.31-17.24-9.84-23.77-8.53-8.53-20.61-11.57-31.65-8.9l26.28-23.03c10.51-8.9 26.08-8.26 35.82 1.48 5.15 5.15 7.75 11.92 7.75 18.72z" fill="#6d3326"/><path d="m443.17 313.75c-39.06 39.06-91.32 56.86-142.42 53.41 42.8-2.89 84.78-20.69 117.49-53.41 71.78-71.78 71.78-188.15 0-259.92-32.71-32.72-74.69-50.52-117.49-53.41 51.1-3.45 103.36 14.35 142.42 53.41 71.77 71.77 71.77 188.14 0 259.92z" fill="#004281"/><path d="m418.24 313.75c-32.71 32.72-74.69 50.52-117.49 53.41-42.8-2.89-84.78-20.69-117.5-53.41-71.77-71.78-71.77-188.15 0-259.92 32.72-32.72 74.7-50.52 117.5-53.41 42.8 2.89 84.78 20.69 117.49 53.41 71.78 71.77 71.78 188.14 0 259.92z" fill="#0055a3"/><path d="m410.36 280.94c-30.74 30.74-72.43 43.87-112.53 39.37-29.87-3.34-58.86-16.47-81.77-39.37-53.65-53.66-53.65-140.65 0-194.3 22.91-22.9 51.9-36.03 81.77-39.37 40.1-4.5 81.79 8.63 112.53 39.37 53.65 53.65 53.65 140.64 0 194.3z" fill="#ecf4ff"/><path d="m410.36 280.94c-30.74 30.74-72.43 43.87-112.53 39.37 29.87-3.34 58.86-16.47 81.77-39.37 53.65-53.66 53.65-140.65 0-194.3-22.91-22.9-51.9-36.03-81.77-39.37 40.1-4.5 81.79 8.63 112.53 39.37 53.65 53.65 53.65 140.64 0 194.3z" fill="#d2e5fd"/><path d="m368.59 209.33-44.71 44.71c-4.61 4.61-11.45 5.61-17.04 3.01-1.55-.72-3.01-1.73-4.3-3.01l-44.71-44.71c-15.36-15.37-15.8-40.39-.55-55.87 13.84-14.05 35.57-15.5 51.05-4.36 2.91 2.09 6.86 2.09 9.76 0 2.4-1.73 4.96-3.15 7.61-4.28 2.79-1.18 5.7-2.03 8.65-2.54 12.28-2.12 25.37 1.61 34.8 11.18 15.25 15.48 14.8 40.5-.56 55.87z" fill="#fd4755"/><path d="m368.59 209.33-44.71 44.71c-4.61 4.61-11.45 5.61-17.04 3.01-1.55-.72-3.01-1.73-4.3-3.01l-4.71-4.71 40-40c15.36-15.37 15.81-40.39.56-55.87-3.74-3.8-8.07-6.68-12.69-8.64 2.79-1.18 5.7-2.03 8.65-2.54 12.28-2.12 25.37 1.61 34.8 11.18 15.25 15.48 14.8 40.5-.56 55.87z" fill="#fb2b3a"/><path d="m72.78 472.63-9.89 11.28c-.1-.07-.2-.16-.3-.26l-49.81-48.47c-.15-.14-.28-.29-.41-.44l11.29-9.9z" fill="#fe646f"/></g><g transform="matrix(0.14264208406492318 -0.1023301860111937 0.1023301860111937 0.14264208406492318 242.3372090002393 18.65768480416008)" id="L1_96"><path d="m303.4 469.4v3.33c0 13.4-10.87 24.27-24.27 24.27h-61.26c-13.4 0-24.27-10.87-24.27-24.27v-3.33c0-13.41 10.87-24.28 24.27-24.28h61.26c13.4 0 24.27 10.87 24.27 24.28z" fill="#5294fe"/><path d="m279.13 445.12h-26.19c13.41 0 24.27 10.87 24.27 24.28v3.33c0 13.4-10.86 24.27-24.27 24.27h26.19c13.4 0 24.27-10.87 24.27-24.27v-3.33c0-13.41-10.87-24.28-24.27-24.28z" fill="#4188ff"/><path d="m418.12 169.62c0 89.709-59.169 109.875-61.902 161.112-.11 2.06-1.782 3.688-3.845 3.688l-99.432 18.288-107.556-18.288c-2.427 0-4.487-1.859-4.646-4.281-3.256-49.496-61.859-83.83-61.859-160.519 0-88.67 68.03-161.44 154.74-168.98 4.9-.42 9.87-.64 14.88-.64 93.68 0 169.62 75.94 169.62 169.62z" fill="#fef6ad"/><path d="m248.5 0c-5.01 0-9.98.22-14.88.64 86.71 7.54 154.74 80.31 154.74 168.98 0 89.835-59.335 109.932-61.913 161.328-.097 1.939-1.675 3.472-3.617 3.472l9.42 3.701 20.122-3.701c2.063 0 3.735-1.628 3.845-3.688 2.734-51.237 61.902-71.403 61.902-161.112.001-93.68-75.939-169.62-169.619-169.62z" fill="#fef056"/><path d="m351.33 164.99-.01.04-3.82 7.392s.73 7.498.74 7.468l-.01.03c-2.95 8.66-7.87 16.78-14.74 23.65l-68.62 68.62c-7.07 7.07-17.57 8.61-26.14 4.62-1.7-.79-3.32-1.79-4.82-3.02-.62-.5-1.21-1.03-1.78-1.6l-68.62-68.62c-8.23-8.23-13.67-18.27-16.26-28.86l2.25-7.5-4.03-7.48c.07-15.17 5.75-30.28 17.19-41.89 21.24-21.56 54.6-23.79 78.35-6.7 4.46 3.21 10.52 3.21 14.98 0 6.35-4.56 13.38-7.75 20.68-9.56 1.41-.35 2.84-.65 4.27-.9 18.84-3.24 38.93 2.47 53.4 17.16 12.76 12.95 18.36 30.27 16.99 47.15z" fill="#fd4755"/><path d="m334.34 117.84c-14.47-14.69-34.56-20.4-53.4-17.16-1.43.25-2.86.55-4.27.9 10.46 2.59 20.35 8.01 28.48 16.26 23.4 23.75 22.72 62.16-.85 85.73l-68.62 68.62c-.57.57-1.16 1.1-1.77 1.6 1.5 1.23 3.12 2.23 4.82 3.02 8.57 3.99 19.07 2.45 26.14-4.62l68.62-68.62c6.87-6.87 11.79-14.99 14.74-23.65l.01-.03c-.01.03-.74-7.468-.74-7.468l3.82-7.392.01-.04c1.37-16.88-4.23-34.2-16.99-47.15z" fill="#fb2b3a"/><path d="m294.708 341.926c-.458 0-.923-.042-1.391-.13-4.071-.764-6.752-4.683-5.989-8.754l10.945-58.354c.764-4.07 4.679-6.75 8.754-5.989 4.071.764 6.752 4.683 5.989 8.754l-10.945 58.354c-.675 3.604-3.824 6.119-7.363 6.119z" fill="#4188ff"/><path d="m202.282 341.926c.458 0 .923-.042 1.391-.13 4.071-.764 6.752-4.683 5.989-8.754l-10.945-58.354c-.764-4.07-4.679-6.75-8.754-5.989-4.071.764-6.752 4.683-5.989 8.754l10.945 58.354c.676 3.604 3.825 6.119 7.363 6.119z" fill="#4188ff"/><path d="m351.33 164.99-.01.04c-.41 5.03-1.44 10.03-3.08 14.86l-.01.03h-65.92c-2.54 0-4.91-1.28-6.3-3.42l-7.88-12.15-22.19 43.98c-1.29 2.55-3.89 4.12-6.69 4.12-.35 0-.71-.02-1.06-.07-3.19-.45-5.73-2.89-6.32-6.05l-9.38-50.21-14.65 16.13c-1.42 1.57-3.43 2.46-5.55 2.46h-55.04c-1.21-4.91-1.81-9.95-1.78-14.98.14-.02.28-.02.42-.02h53.08l22.56-24.86c1.92-2.11 4.86-2.95 7.6-2.17 2.74.77 4.81 3.04 5.33 5.84l8.08 43.25 18.09-35.84c1.21-2.4 3.61-3.96 6.29-4.11 2.67-.15 5.23 1.16 6.7 3.41l12.76 19.69s64.64.02 64.95.07z" fill="#fe99a0"/><g fill="#80d261"><path d="m366.48 349.25v22.212c0 4.434-3.594 8.028-8.028 8.028h-219.913c-4.429 0-8.019-3.59-8.019-8.019v-22.211c0-8.196 6.644-14.84 14.84-14.84h206.29c8.19 0 14.83 6.64 14.83 14.83z"/><path d="m357.617 424.55c4.895 0 8.863-3.968 8.863-8.863v-27.334c0-4.895-3.968-8.863-8.863-8.863h-218.924c-4.513 0-8.172 3.659-8.172 8.172v28.723c0 4.509 3.655 8.165 8.165 8.165z"/><path d="m366.48 432.56v22.22c0 8.19-6.64 14.83-14.83 14.83h-206.3c-8.19 0-14.83-6.64-14.83-14.83v-22.22c0-4.424 3.586-8.01 8.01-8.01h219.94c4.424 0 8.01 3.586 8.01 8.01z"/></g><path d="m351.65 334.42h-29.2c8.196 0 14.84 6.644 14.84 14.84v30.23h21.162c4.434 0 8.028-3.594 8.028-8.028v-22.212c0-8.19-6.64-14.83-14.83-14.83z" fill="#4fc123"/><g><path d="m130.52 416.382v-28.722.002 28.724c0 4.509 3.655 8.165 8.165 8.165h.003c-4.511-.002-8.168-3.659-8.168-8.169z" fill="#d2e5fd"/><path d="m357.617 379.49h-20.327v45.06h20.327c4.895 0 8.863-3.968 8.863-8.863v-27.334c0-4.895-3.968-8.863-8.863-8.863z" fill="#4fc123"/></g><path d="m358.47 424.55h-21.18v30.23c0 8.19-6.64 14.83-14.83 14.83h29.19c8.19 0 14.83-6.64 14.83-14.83v-22.22c0-4.424-3.586-8.01-8.01-8.01z" fill="#4fc123"/><path d="m130.52 371.988h235.96v15h-235.96z" fill="#ecf4ff"/><path d="m337.29 371.99h29.19v15h-29.19z" fill="#d2e5fd"/><path d="m130.52 417.051h235.96v15h-235.96z" fill="#ecf4ff"/><path d="m337.29 417.05h29.19v15h-29.19z" fill="#d2e5fd"/><path d="m322.138 164.939c-.401 5.074-1.44 10.107-3.098 14.981h29.19l.01-.03c1.64-4.83 2.67-9.83 3.08-14.86l.01-.04c-.144-.023-14.197-.04-29.192-.051z" fill="#fe646f"/></g><g transform="matrix(0.1243508746719505 -0.07014664581724642 0.07014664581724642 0.1243508746719505 164.93817027435531 122.54882958436254)" id="L1_97"><path d="m422.753 234.34v251.675c0 10.212-8.278 18.49-18.49 18.49h-105.85l-41-7.253-35.31 7.253h-106.41c-10.212 0-18.49-8.278-18.49-18.49v-251.675c0-2.328 1.887-4.215 4.215-4.215h120.685l35.31 5.127 41-5.127h120.125c2.328 0 4.215 1.887 4.215 4.215z" fill="#ecf4ff"/><path d="m418.538 230.125h-42.19c4.404 0 7.975 3.57 7.975 7.975v247.915c0 10.212-8.278 18.49-18.49 18.49h38.43c10.212 0 18.49-8.278 18.49-18.49v-251.675c0-2.328-1.887-4.215-4.215-4.215z" fill="#d2e5fd"/><path d="m221.543 230.125h76.87v274.38h-76.87z" fill="#e41f2d"/><path d="m267.383 230.125h31.03v274.38h-31.03z" fill="#c41926"/><path d="m426.972 184.795-130.389 16.899-39.331-.442-36.906 10.323-130.394 16.9-.15.01c-6.97.83-13.33-4.11-14.23-11.09l-9.12-70.39c-.9-6.97 3.96-13.36 10.9-14.35l130.575-16.925 38.7-3.103 37.542-6.779 97.003-12.573 33.38-4.33c7.03-.91 13.47 4.05 14.38 11.08l9.12 70.39c.911 7.03-4.049 13.47-11.08 14.38z" fill="#ecf4ff"/><path d="m426.972 184.795c7.03-.91 11.99-7.35 11.08-14.38l-9.12-70.39c-.91-7.03-7.35-11.99-14.38-11.08l-33.38 4.33c7.03-.91 13.47 4.05 14.38 11.08l9.12 70.38c.92 7.03-4.05 13.47-11.08 14.38" fill="#d2e5fd"/><path d="m296.583 201.695-30.711 3.98-45.529 5.9-12.421-95.85 45.53-5.9 30.71-3.98z" fill="#e41f2d"/><path d="m259.534 107.435h30.967v96.651h-30.967z" transform="matrix(0.992 -0.129 0.129 0.992 -17.738 36.639)" fill="#c41926"/><path d="m184.111 284.469c6.716 6.815 6.52 17.834-.246 24.6l-19.688 19.688c-2.594 2.594-6.799 2.594-9.393 0l-19.688-19.688c-6.766-6.766-6.961-17.785-.246-24.6 6.095-6.185 15.666-6.826 22.481-1.921 1.279.921 3.019.921 4.298 0 6.816-4.905 16.386-4.265 22.482 1.921z" fill="#fe646f"/><path d="m186.051 390.271h-53.141c-2.464 0-4.461-1.997-4.461-4.461v-19.339c0-2.464 1.997-4.461 4.461-4.461h53.141c2.464 0 4.461 1.997 4.461 4.461v19.339c0 2.464-1.997 4.461-4.461 4.461z" fill="#5294fe"/><path d="m246.169 116.839c-1.259.046-31.21 1.073-62.677-3.875-44.843-7.051-69.541-22.51-73.41-45.947-3.001-18.188 3.622-27.957 9.706-32.949 12.297-10.092 33.932-10.386 59.36-.812 32.795 12.346 68.44 40.284 74.147 74.868.35 2.126-.23 4.3-1.594 5.968-.954 1.167-2.228 2.008-3.645 2.435-.607.181-1.241.288-1.887.312zm-116.866-71.176c-4.407 3.616-5.895 9.979-4.421 18.911 3.353 20.318 34.887 29.455 60.75 33.542 19.8 3.129 39.418 3.759 50.587 3.823-8.965-24.73-37.379-45.243-62.356-54.646-15.361-5.783-29.533-7.385-38.579-4.661-2.369.712-4.387 1.722-5.981 3.031z" fill="#e41f2d"/><path d="m246.042 118.286c-1.479 0-2.941-.438-4.192-1.281-1.787-1.204-2.969-3.119-3.247-5.255-4.505-34.761 21.573-71.788 49.416-93.064 21.589-16.498 42.39-22.453 57.074-16.334 7.265 3.026 16.423 10.471 18.792 28.752 3.053 23.558-16.141 45.48-57.047 65.159-28.705 13.809-57.68 21.46-58.899 21.779-.625.164-1.263.244-1.897.244zm86.683-103.267c-9.447 0-22.556 5.619-35.598 15.585-21.206 16.205-42.501 44.038-43.956 70.302 10.676-3.28 29.28-9.54 47.337-18.244 23.587-11.37 51.148-29.209 48.501-49.631-1.164-8.978-4.422-14.642-9.685-16.833-1.903-.794-4.126-1.179-6.599-1.179z" fill="#c41926"/><path d="m155.26 174.506c-2.511 0-4.964-1.261-6.384-3.552-2.181-3.522-1.094-8.145 2.428-10.325l90.79-56.219c1.679-1.04 3.702-1.375 5.625-.934l122.544 28.11c4.038.926 6.56 4.95 5.633 8.987-.926 4.038-4.949 6.558-8.987 5.633l-119.54-27.42-88.168 54.596c-1.23.762-2.594 1.124-3.941 1.124z" fill="#c41926"/></g></defs><g fi:class="KUsePattern"><pattern id="pattern_L1_93" width="350" height="350" patternUnits="userSpaceOnUse"><use xlink:href="#L1_93" x="-350" y="-350"/><use xlink:href="#L1_93" x="0" y="-350"/><use xlink:href="#L1_93" x="350" y="-350"/><use xlink:href="#L1_93" x="-350" y="0"/><use xlink:href="#L1_93" x="0" y="0"/><use xlink:href="#L1_93" x="350" y="0"/><use xlink:href="#L1_93" x="-350" y="350"/><use xlink:href="#L1_93" x="0" y="350"/><use xlink:href="#L1_93" x="350" y="350"/></pattern><rect x="0" y="0" width="100%" height="100%" fill="url(#pattern_L1_93)"/></g><g fi:class="KUsePattern"><pattern id="pattern_L1_89" width="350" height="350" patternUnits="userSpaceOnUse"><use xlink:href="#L1_89" x="-350" y="-350"/><use xlink:href="#L1_89" x="0" y="-350"/><use xlink:href="#L1_89" x="350" y="-350"/><use xlink:href="#L1_89" x="-350" y="0"/><use xlink:href="#L1_89" x="0" y="0"/><use xlink:href="#L1_89" x="350" y="0"/><use xlink:href="#L1_89" x="-350" y="350"/><use xlink:href="#L1_89" x="0" y="350"/><use xlink:href="#L1_89" x="350" y="350"/></pattern><rect x="0" y="0" width="100%" height="100%" fill="url(#pattern_L1_89)"/></g><g fi:class="KUsePattern"><pattern id="pattern_L1_90" width="350" height="350" patternUnits="userSpaceOnUse"><use xlink:href="#L1_90" x="-350" y="-350"/><use xlink:href="#L1_90" x="0" y="-350"/><use xlink:href="#L1_90" x="350" y="-350"/><use xlink:href="#L1_90" x="-350" y="0"/><use xlink:href="#L1_90" x="0" y="0"/><use xlink:href="#L1_90" x="350" y="0"/><use xlink:href="#L1_90" x="-350" y="350"/><use xlink:href="#L1_90" x="0" y="350"/><use xlink:href="#L1_90" x="350" y="350"/></pattern><rect x="0" y="0" width="100%" height="100%" fill="url(#pattern_L1_90)"/></g><g fi:class="KUsePattern"><pattern id="pattern_L1_94" width="350" height="350" patternUnits="userSpaceOnUse"><use xlink:href="#L1_94" x="-350" y="-350"/><use xlink:href="#L1_94" x="0" y="-350"/><use xlink:href="#L1_94" x="350" y="-350"/><use xlink:href="#L1_94" x="-350" y="0"/><use xlink:href="#L1_94" x="0" y="0"/><use xlink:href="#L1_94" x="350" y="0"/><use xlink:href="#L1_94" x="-350" y="350"/><use xlink:href="#L1_94" x="0" y="350"/><use xlink:href="#L1_94" x="350" y="350"/></pattern><rect x="0" y="0" width="100%" height="100%" fill="url(#pattern_L1_94)"/></g><g fi:class="KUsePattern"><pattern id="pattern_L1_95" width="350" height="350" patternUnits="userSpaceOnUse"><use xlink:href="#L1_95" x="-350" y="-350"/><use xlink:href="#L1_95" x="0" y="-350"/><use xlink:href="#L1_95" x="350" y="-350"/><use xlink:href="#L1_95" x="-350" y="0"/><use xlink:href="#L1_95" x="0" y="0"/><use xlink:href="#L1_95" x="350" y="0"/><use xlink:href="#L1_95" x="-350" y="350"/><use xlink:href="#L1_95" x="0" y="350"/><use xlink:href="#L1_95" x="350" y="350"/></pattern><rect x="0" y="0" width="100%" height="100%" fill="url(#pattern_L1_95)"/></g><g fi:class="KUsePattern"><pattern id="pattern_L1_96" width="350" height="350" patternUnits="userSpaceOnUse"><use xlink:href="#L1_96" x="-350" y="-350"/><use xlink:href="#L1_96" x="0" y="-350"/><use xlink:href="#L1_96" x="350" y="-350"/><use xlink:href="#L1_96" x="-350" y="0"/><use xlink:href="#L1_96" x="0" y="0"/><use xlink:href="#L1_96" x="350" y="0"/><use xlink:href="#L1_96" x="-350" y="350"/><use xlink:href="#L1_96" x="0" y="350"/><use xlink:href="#L1_96" x="350" y="350"/></pattern><rect x="0" y="0" width="100%" height="100%" fill="url(#pattern_L1_96)"/></g><g fi:class="KUsePattern"><pattern id="pattern_L1_97" width="350" height="350" patternUnits="userSpaceOnUse"><use xlink:href="#L1_97" x="-350" y="-350"/><use xlink:href="#L1_97" x="0" y="-350"/><use xlink:href="#L1_97" x="350" y="-350"/><use xlink:href="#L1_97" x="-350" y="0"/><use xlink:href="#L1_97" x="0" y="0"/><use xlink:href="#L1_97" x="350" y="0"/><use xlink:href="#L1_97" x="-350" y="350"/><use xlink:href="#L1_97" x="0" y="350"/><use xlink:href="#L1_97" x="350" y="350"/></pattern><rect x="0" y="0" width="100%" height="100%" fill="url(#pattern_L1_97)"/></g></svg>